{
  "accessors": [
    {
      "bufferView": 2,
      "componentType": 5126,
      "count": 36,
      "max": [
        2.7622265815734863,
        4.7158408164978027,
        0.01023399829864502
      ],
      "min": [
        -2.8294553756713867,
        -0.87584102153778076,
        0.01023399829864502
      ],
      "type": "VEC3"
    },
    {
      "bufferView": 2,
      "byteOffset": 432,
      "componentType": 5126,
      "count": 36,
      "max": [
        0.12958197295665741,
        0.12958197295665741,
        -0.98306512832641602
      ],
      "min": [
        -0.12958197295665741,
        -0.12958197295665741,
        -0.98306512832641602
      ],
      "type": "VEC3"
    },
    {
      "bufferView": 1,
      "componentType": 5126,
      "count": 36,
      "max": [
        0.60948014259338379,
        0.98448014259338379
      ],
      "min": [
        0.3905198872089386,
        0.76551985740661621
      ],
      "type": "VEC2"
    },
    {
      "bufferView": 0,
      "componentType": 5125,
      "count": 54,
      "max": [
        35
      ],
      "min": [
        0
      ],
      "type": "SCALAR"
    },
    {
      "bufferView": 2,
      "byteOffset": 864,
      "componentType": 5126,
      "count": 36,
      "max": [
        -2.9536142349243164,
        4.7158408164978027,
        5.7260746955871582
      ],
      "min": [
        -2.9536142349243164,
        -0.87584102153778076,
        0.13439309597015381
      ],
      "type": "VEC3"
    },
    {
      "bufferView": 2,
      "byteOffset": 1296,
      "componentType": 5126,
      "count": 36,
      "max": [
        -0.98306512832641602,
        0.12958197295665741,
        0.12958197295665741
      ],
      "min": [
        -0.98306512832641602,
        -0.12958197295665741,
        -0.12958197295665741
      ],
      "type": "VEC3"
    },
    {
      "bufferView": 1,
      "byteOffset": 288,
      "componentType": 5126,
      "count": 36,
      "max": [
        0.60948014259338379,
        0.73448014259338379
      ],
      "min": [
        0.3905198872089386,
        0.51551991701126099
      ],
      "type": "VEC2"
    },
    {
      "bufferView": 0,
      "byteOffset": 216,
      "componentType": 5125,
      "count": 54,
      "max": [
        35
      ],
      "min": [
        0
      ],
      "type": "SCALAR"
    },
    {
      "bufferView": 2,
      "byteOffset": 1728,
      "componentType": 5126,
      "count": 36,
      "max": [
        2.7622265815734863,
        -1.0000001192092896,
        5.7260746955871582
      ],
      "min": [
        -2.8294553756713867,
        -1.0000001192092896,
        0.13439309597015381
      ],
      "type": "VEC3"
    },
    {
      "bufferView": 2,
      "byteOffset": 2160,
      "componentType": 5126,
      "count": 36,
      "max": [
        0.12958197295665741,
        -0.98306512832641602,
        0.12958197295665741
      ],
      "min": [
        -0.12958197295665741,
        -0.98306512832641602,
        -0.12958197295665741
      ],
      "type": "VEC3"
    },
    {
      "bufferView": 1,
      "byteOffset": 576,
      "componentType": 5126,
      "count": 36,
      "max": [
        0.60948014259338379,
        0.48448014259338379
      ],
      "min": [
        0.3905198872089386,
        0.2655198872089386
      ],
      "type": "VEC2"
    },
    {
      "bufferView": 0,
      "byteOffset": 432,
      "componentType": 5125,
      "count": 54,
      "max": [
        35
      ],
      "min": [
        0
      ],
      "type": "SCALAR"
    },
    {
      "bufferView": 2,
      "byteOffset": 2592,
      "componentType": 5126,
      "count": 2162,
      "max": [
        2.8863859176635742,
        4.8400001525878906,
        5.8502340316772461
      ],
      "min": [
        -2.9536142349243164,
        -1.0000001192092896,
        0.01023399829864502
      ],
      "type": "VEC3"
    },
    {
      "bufferView": 2,
      "byteOffset": 28536,
      "componentType": 5126,
      "count": 2162,
      "max": [
        0.98306512832641602,
        0.98306512832641602,
        0.98306512832641602
      ],
      "min": [
        -0.98306512832641602,
        -0.98306512832641602,
        -0.98306512832641602
      ],
      "type": "VEC3"
    },
    {
      "bufferView": 1,
      "byteOffset": 864,
      "componentType": 5126,
      "count": 2162,
      "max": [
        0.875,
        1
      ],
      "min": [
        0.125,
        0
      ],
      "type": "VEC2"
    },
    {
      "bufferView": 0,
      "byteOffset": 648,
      "componentType": 5125,
      "count": 6288,
      "max": [
        2161
      ],
      "min": [
        0
      ],
      "type": "SCALAR"
    },
    {
      "bufferView": 2,
      "byteOffset": 54480,
      "componentType": 5126,
      "count": 36,
      "max": [
        2.8863859176635742,
        4.7158408164978027,
        5.7260746955871582
      ],
      "min": [
        2.8863859176635742,
        -0.87584102153778076,
        0.13439309597015381
      ],
      "type": "VEC3"
    },
    {
      "bufferView": 2,
      "byteOffset": 54912,
      "componentType": 5126,
      "count": 36,
      "max": [
        0.98306512832641602,
        0.12958197295665741,
        0.12958197295665741
      ],
      "min": [
        0.98306417465209961,
        -0.129585862159729,
        -0.129585862159729
      ],
      "type": "VEC3"
    },
    {
      "bufferView": 1,
      "byteOffset": 18160,
      "componentType": 5126,
      "count": 36,
      "max": [
        0.3594801127910614,
        0.73448014259338379
      ],
      "min": [
        0.1405198872089386,
        0.51551991701126099
      ],
      "type": "VEC2"
    },
    {
      "bufferView": 0,
      "byteOffset": 25800,
      "componentType": 5125,
      "count": 54,
      "max": [
        35
      ],
      "min": [
        0
      ],
      "type": "SCALAR"
    },
    {
      "bufferView": 2,
      "byteOffset": 55344,
      "componentType": 5126,
      "count": 36,
      "max": [
        2.7622265815734863,
        4.8400001525878906,
        5.7260746955871582
      ],
      "min": [
        -2.8294553756713867,
        4.8400001525878906,
        0.13439309597015381
      ],
      "type": "VEC3"
    },
    {
      "bufferView": 2,
      "byteOffset": 55776,
      "componentType": 5126,
      "count": 36,
      "max": [
        0.129585862159729,
        0.98306512832641602,
        0.129585862159729
      ],
      "min": [
        -0.129585862159729,
        0.98306417465209961,
        -0.129585862159729
      ],
      "type": "VEC3"
    },
    {
      "bufferView": 1,
      "byteOffset": 18448,
      "componentType": 5126,
      "count": 36,
      "max": [
        0.85948014259338379,
        0.73448014259338379
      ],
      "min": [
        0.64051997661590576,
        0.51551991701126099
      ],
      "type": "VEC2"
    },
    {
      "bufferView": 0,
      "byteOffset": 26016,
      "componentType": 5125,
      "count": 54,
      "max": [
        35
      ],
      "min": [
        0
      ],
      "type": "SCALAR"
    },
    {
      "bufferView": 2,
      "byteOffset": 56208,
      "componentType": 5126,
      "count": 36,
      "max": [
        2.7622265815734863,
        4.7158408164978027,
        5.8502340316772461
      ],
      "min": [
        -2.8294553756713867,
        -0.87584102153778076,
        5.8502340316772461
      ],
      "type": "VEC3"
    },
    {
      "bufferView": 2,
      "byteOffset": 56640,
      "componentType": 5126,
      "count": 36,
      "max": [
        0.129585862159729,
        0.129585862159729,
        0.98306512832641602
      ],
      "min": [
        -0.129585862159729,
        -0.129585862159729,
        0.98306417465209961
      ],
      "type": "VEC3"
    },
    {
      "bufferView": 1,
      "byteOffset": 18736,
      "componentType": 5126,
      "count": 36,
      "max": [
        0.60948014259338379,
        0.2344801276922226
      ],
      "min": [
        0.3905198872089386,
        0.015519887208938599
      ],
      "type": "VEC2"
    },
    {
      "bufferView": 0,
      "byteOffset": 26232,
      "componentType": 5125,
      "count": 54,
      "max": [
        35
      ],
      "min": [
        0
      ],
      "type": "SCALAR"
    }
  ],
  "asset": {
    "extras": {
      "author": "SusanKing (https://sketchfab.com/krolzuzannapl)",
      "license": "CC-BY-4.0 (http://creativecommons.org/licenses/by/4.0/)",
      "source": "https://sketchfab.com/3d-models/rubiks-cube-solved-1e23434674ba4a5486ef795cafc50394",
      "title": "Rubik's Cube solved"
    },
    "generator": "Sketchfab-9.52.0",
    "version": "2.0"
  },
  "bufferViews": [
    {
      "buffer": 0,
      "byteLength": 26448,
      "byteOffset": 0,
      "name": "floatBufferViews",
      "target": 34963
    },
    {
      "buffer": 0,
      "byteLength": 19024,
      "byteOffset": 26448,
      "byteStride": 8,
      "name": "floatBufferViews",
      "target": 34962
    },
    {
      "buffer": 0,
      "byteLength": 57072,
      "byteOffset": 45472,
      "byteStride": 12,
      "name": "floatBufferViews",
      "target": 34962
    }
  ],
  "buffers": [
    {
      "byteLength": 102544,
      "uri": "scene.bin"
    }
  ],
  "materials": [
    {
      "doubleSided": true,
      "emissiveFactor": [
        0,
        0,
        0
      ],
      "name": "bottom",
      "pbrMetallicRoughness": {
        "baseColorFactor": [
          0.90466100000000005,
          0.46207700000000002,
          0.0116122,
          1
        ],
        "metallicFactor": 0,
        "roughnessFactor": 0.59999999999999998
      }
    },
    {
      "doubleSided": true,
      "emissiveFactor": [
        0,
        0,
        0
      ],
      "name": "left",
      "pbrMetallicRoughness": {
        "baseColorFactor": [
          0.165132,
          0.401978,
          0.040915199999999999,
          1
        ],
        "metallicFactor": 0,
        "roughnessFactor": 0.59999999999999998
      }
    },
    {
      "doubleSided": true,
      "emissiveFactor": [
        0,
        0,
        0
      ],
      "name": "front",
      "pbrMetallicRoughness": {
        "baseColorFactor": [
          0.0202886,
          0.603827,
          0.73791099999999998,
          1
        ],
        "metallicFactor": 0,
        "roughnessFactor": 0.59999999999999998
      }
    },
    {
      "doubleSided": true,
      "emissiveFactor": [
        0,
        0,
        0
      ],
      "name": "line",
      "pbrMetallicRoughness": {
        "baseColorFactor": [
          0.027320899999999999,
          0.025186900000000002,
          0.028426,
          1
        ],
        "metallicFactor": 0,
        "roughnessFactor": 0.59999999999999998
      }
    },
    {
      "doubleSided": true,
      "emissiveFactor": [
        0,
        0,
        0
      ],
      "name": "right",
      "pbrMetallicRoughness": {
        "baseColorFactor": [
          0.79129799999999995,
          0.064803299999999994,
          0.026241199999999999,
          1
        ],
        "metallicFactor": 0,
        "roughnessFactor": 0.59999999999999998
      }
    },
    {
      "doubleSided": true,
      "emissiveFactor": [
        0,
        0,
        0
      ],
      "name": "back",
      "pbrMetallicRoughness": {
        "baseColorFactor": [
          0.90466100000000005,
          0.74540399999999996,
          0.074213600000000005,
          1
        ],
        "metallicFactor": 0,
        "roughnessFactor": 0.59999999999999998
      }
    },
    {
      "doubleSided": true,
      "emissiveFactor": [
        0,
        0,
        0
      ],
      "name": "top",
      "pbrMetallicRoughness": {
        "baseColorFactor": [
          0.84687299999999999,
          0.88792300000000002,
          0.91309899999999999,
          1
        ],
        "metallicFactor": 0,
        "roughnessFactor": 0.59999999999999998
      }
    }
  ],
  "meshes": [
    {
      "name": "rubiks_cube_bottom_0",
      "primitives": [
        {
          "attributes": {
            "NORMAL": 1,
            "POSITION": 0,
            "TEXCOORD_0": 2
          },
          "indices": 3,
          "material": 0,
          "mode": 4
        }
      ]
    },
    {
      "name": "rubiks_cube_left_0",
      "primitives": [
        {
          "attributes": {
            "NORMAL": 5,
            "POSITION": 4,
            "TEXCOORD_0": 6
          },
          "indices": 7,
          "material": 1,
          "mode": 4
        }
      ]
    },
    {
      "name": "rubiks_cube_front_0",
      "primitives": [
        {
          "attributes": {
            "NORMAL": 9,
            "POSITION": 8,
            "TEXCOORD_0": 10
          },
          "indices": 11,
          "material": 2,
          "mode": 4
        }
      ]
    },
    {
      "name": "rubiks_cube_line_0",
      "primitives": [
        {
          "attributes": {
            "NORMAL": 13,
            "POSITION": 12,
            "TEXCOORD_0": 14
          },
          "indices": 15,
          "material": 3,
          "mode": 4
        }
      ]
    },
    {
      "name": "rubiks_cube_red_0",
      "primitives": [
        {
          "attributes": {
            "NORMAL": 17,
            "POSITION": 16,
            "TEXCOORD_0": 18
          },
          "indices": 19,
          "material": 4,
          "mode": 4
        }
      ]
    },
    {
      "name": "rubiks_cube_back_0",
      "primitives": [
        {
          "attributes": {
            "NORMAL": 21,
            "POSITION": 20,
            "TEXCOORD_0": 22
          },
          "indices": 23,
          "material": 5,
          "mode": 4
        }
      ]
    },
    {
      "name": "rubiks_cube_top_0",
      "primitives": [
        {
          "attributes": {
            "NORMAL": 25,
            "POSITION": 24,
            "TEXCOORD_0": 26
          },
          "indices": 27,
          "material": 6,
          "mode": 4
        }
      ]
    }
  ],
  "nodes": [
    {
      "children": [
        1
      ],
      "name": "RootNode (gltf orientation matrix)",
      "rotation": [
        -0.70710678118654746,
        -0,
        -0,
        0.70710678118654757
      ]
    },
    {
      "children": [
        2
      ],
      "name": "RootNode (model correction matrix)"
    },
    {
      "children": [
        3
      ],
      "matrix": [
        1,
        0,
        0,
        0,
        0,
        0,
        1,
        0,
        0,
        -1,
        0,
        0,
        0,
        0,
        0,
        1
      ],
      "name": "2997c058ae1343fdac58919777fc3fc7.fbx"
    },
    {
      "children": [
        4
      ],
      "name": "RootNode"
    },
    {
      "children": [
        5,
        6,
        7,
        8,
        9,
        10,
        11
      ],
      "matrix": [
        17.123287200927734,
        0,
        0,
        0,
        0,
        -2.7897375841965977e-06,
        -17.123287200927507,
        0,
        0,
        17.123287200927507,
        -2.7897375841965977e-06,
        0,
        2.9802322387695312e-06,
        0,
        0,
        1
      ],
      "name": "rubiks_cube"
    },
    {
      "mesh": 0,
      "name": "rubiks_cube_bottom_0"
    },
    {
      "mesh": 1,
      "name": "rubiks_cube_left_0"
    },
    {
      "mesh": 2,
      "name": "rubiks_cube_front_0"
    },
    {
      "mesh": 3,
      "name": "rubiks_cube_line_0"
    },
    {
      "mesh": 4,
      "name": "rubiks_cube_red_0"
    },
    {
      "mesh": 5,
      "name": "rubiks_cube_back_0"
    },
    {
      "mesh": 6,
      "name": "rubiks_cube_top_0"
    }
  ],
  "scene": 0,
  "scenes": [
    {
      "name": "OSG_Scene",
      "nodes": [
        0
      ]
    }
  ]
}

